<svg xmlns="http://www.w3.org/2000/svg" width="11" height="13"><path fill="#fff" d="M5.433.29c1.225 0 2.415.414 3.353 1.165a5.359 5.359 0 012.033 3.926 5.402 5.402 0 01-1.57 4.11l-3.58 3.534a.377.377 0 01-.519-.002l-3.53-3.53A5.4 5.4 0 01.048 5.38 5.358 5.358 0 012.08 1.455 5.371 5.371 0 015.433.29zM3.027 5.68a2.409 2.409 0 002.406 2.406A2.408 2.408 0 007.839 5.68a2.409 2.409 0 00-2.406-2.407A2.409 2.409 0 003.027 5.68z"/><path fill="#fff" d="M5.432 4.51a1.173 1.173 0 10.002 2.346 1.173 1.173 0 00-.002-2.346z"/></svg>